<svg width="60" height="60" viewBox="0 0 60 60" fill="none" xmlns="http://www.w3.org/2000/svg">
    <g clip-path="url(#clip0)">
    <path d="M0.69693 30C0.528473 30 0.364594 29.9334 0.243058 29.8105C0.0828402 29.6484 0.0210422 29.4131 0.0812381 29.1932L2.03154 22.0713C0.817322 19.8756 0.17714 17.3918 0.178055 14.8705C0.181488 6.67076 6.85431 0 15.0533 0C19.0301 0.00160218 22.7669 1.55067 25.5755 4.36134C28.3836 7.17224 29.9295 10.9087 29.9283 14.8824C29.9247 23.0823 23.2519 29.7535 15.0533 29.7535C15.0533 29.7535 15.0471 29.7535 15.0469 29.7535C12.6521 29.7526 10.2779 29.1689 8.16397 28.0634L0.858749 29.9792C0.805191 29.9931 0.750717 30 0.69693 30Z" fill="#E5E5E5"/>
    <path d="M0.696899 29.3617L2.71655 21.9864C1.47075 19.8278 0.81546 17.3792 0.816376 14.8707C0.81958 7.02303 7.20584 0.638367 15.0533 0.638367C18.8614 0.639969 22.4359 2.12221 25.1239 4.81248C27.8116 7.50276 29.2913 11.0788 29.29 14.8821C29.2865 22.7296 22.8994 29.1152 15.0533 29.1152C15.0528 29.1152 15.0535 29.1152 15.0533 29.1152H15.0471C12.6644 29.1142 10.3234 28.5166 8.24405 27.3825L0.696899 29.3617ZM8.59355 24.806L9.02591 25.0621C10.8423 26.1402 12.9249 26.7103 15.0487 26.7114H15.0533C21.575 26.7114 26.8833 21.4041 26.886 14.8812C26.8872 11.7201 25.6576 8.74765 23.4235 6.5117C21.1891 4.27576 18.2185 3.04369 15.0576 3.04231C8.53061 3.04231 3.22261 8.34894 3.22009 14.8716C3.21918 17.1069 3.84448 19.2835 5.02918 21.1672L5.3107 21.6149L4.11502 25.9802L8.59355 24.806Z" fill="white"/>
    <path d="M1.19202 28.8647L3.14186 21.7445C1.93886 19.6607 1.30646 17.2966 1.30714 14.8753C1.31012 7.29927 7.47551 1.13571 15.0508 1.13571C18.7276 1.13731 22.1784 2.56828 24.7728 5.16541C27.3679 7.76253 28.7961 11.2148 28.7947 14.886C28.7915 22.4622 22.6259 28.6265 15.0515 28.6265C15.0508 28.6265 15.0517 28.6265 15.0515 28.6265H15.0453C12.7453 28.6256 10.4851 28.0483 8.47778 26.9543L1.19202 28.8647Z" fill="#64B161"/>
    <path d="M0.696899 29.3617L2.71655 21.9864C1.47075 19.8278 0.81546 17.3792 0.816376 14.8707C0.81958 7.02303 7.20584 0.638367 15.0533 0.638367C18.8614 0.639969 22.4359 2.12221 25.1239 4.81248C27.8116 7.50276 29.2913 11.0788 29.29 14.8821C29.2865 22.7296 22.8994 29.1152 15.0533 29.1152C15.0528 29.1152 15.0535 29.1152 15.0533 29.1152H15.0471C12.6644 29.1142 10.3234 28.5166 8.24405 27.3825L0.696899 29.3617ZM8.59355 24.806L9.02591 25.0621C10.8423 26.1402 12.9249 26.7103 15.0487 26.7114H15.0533C21.575 26.7114 26.8833 21.4041 26.886 14.8812C26.8872 11.7201 25.6576 8.74765 23.4235 6.5117C21.1891 4.27576 18.2185 3.04369 15.0576 3.04231C8.53061 3.04231 3.22261 8.34894 3.22009 14.8716C3.21918 17.1069 3.84448 19.2835 5.02918 21.1672L5.3107 21.6149L4.11502 25.9802L8.59355 24.806Z" fill="white"/>
    <path fill-rule="evenodd" clip-rule="evenodd" d="M11.495 8.92069C11.2286 8.32834 10.948 8.31644 10.6944 8.30614C10.487 8.29721 10.2497 8.29767 10.0128 8.29767C9.77568 8.29767 9.39024 8.38694 9.06432 8.74285C8.73816 9.09876 7.81897 9.95935 7.81897 11.7096C7.81897 13.4601 9.09384 15.1513 9.27168 15.3889C9.44952 15.6262 11.7326 19.3328 15.3483 20.7587C18.3533 21.9438 18.9646 21.7081 19.6169 21.6488C20.2692 21.5895 21.7215 20.7882 22.0179 19.9576C22.3145 19.127 22.3145 18.4152 22.2255 18.2662C22.1364 18.1181 21.8993 18.029 21.5436 17.8512C21.188 17.6734 19.4391 16.8125 19.1129 16.694C18.7868 16.5752 18.5496 16.5161 18.3125 16.8723C18.0752 17.228 17.394 18.029 17.1864 18.2662C16.9788 18.504 16.7712 18.5337 16.4155 18.3557C16.0599 18.1774 14.9141 17.802 13.555 16.5901C12.4975 15.6473 11.7834 14.4827 11.5758 14.1266C11.3685 13.7709 11.5724 13.5951 11.7322 13.4008C12.0199 13.0509 12.5026 12.4217 12.6211 12.1845C12.7397 11.947 12.6804 11.7394 12.5916 11.5613C12.5026 11.3835 11.8111 9.62427 11.495 8.92069Z" fill="white"/>
    </g>
    <defs>
    <clipPath id="clip0">
    <rect width="30" height="30" fill="white"/>
    </clipPath>
    </defs>
    </svg>
